<?xml version="1.0" encoding="utf-8"?>
<!-- Generator: Adobe Illustrator 20.0.0, SVG Export Plug-In . SVG Version: 6.00 Build 0)  -->
<svg version="1.1" id="Calque_1" xmlns="http://www.w3.org/2000/svg" xmlns:xlink="http://www.w3.org/1999/xlink" x="0px" y="0px"
	 viewBox="0 0 99.2 99.2" style="enable-background:new 0 0 99.2 99.2;" xml:space="preserve">
<path d="M84.9,76.2c-7.4-3.7-4.6-0.9-13.7-4.7c-9.1-3.8-11.3-5-11.3-5l-0.1-8.7c0,0,3.4-2.6,4.5-10.8c2.1,0.6,2.9-2.5,3-4.5
	c0.1-1.9,1.3-8-1.3-7.4c0.5-4,1-7.7,0.8-9.6c-0.7-6.8-5.3-13.8-17.1-14.3c-10,0.5-16.5,7.6-17.1,14.3c-0.2,1.9,0.2,5.6,0.7,9.6
	c-2.6-0.5-1.5,5.5-1.4,7.4c0.1,2,0.8,5.1,3,4.5c1.1,8.2,4.5,10.9,4.5,10.9l-0.1,8.8c0,0-2.2,1.3-11.3,5.1c-9.1,3.8-6.3,0.8-13.7,4.5
	c-11.7,5.9-11.7,22-11.7,22h47.1h47C96.7,98.2,96.7,82.1,84.9,76.2z"/>
</svg>
