<?xml version="1.0" encoding="utf-8"?>
<!-- Generator: Adobe Illustrator 20.0.0, SVG Export Plug-In . SVG Version: 6.00 Build 0)  -->
<svg version="1.1" id="Calque_1" xmlns="http://www.w3.org/2000/svg" xmlns:xlink="http://www.w3.org/1999/xlink" x="0px" y="0px"
	 viewBox="0 0 99.2 99.2" style="enable-background:new 0 0 99.2 99.2;" xml:space="preserve">
<style type="text/css">
	.st0{fill:#010101;}
</style>
<path class="st0" d="M99.1,99.6c0-0.2-1.4-10.8-1.4-11c0,0-2.7-6.8-6.9-7.5c-4.3-0.7-9.7-2.2-12-3.9c-1.3-1-5.7-2.8-7.7-3.5
	c-0.9-0.3-2.6-3.1-3.1-4.4c-0.6-1.3-4.4-3.8-5.4-3.9l-0.2-5.2l11.1-3.5c0,0,2.9-1.3,3.1-1.3c0.3,0-1.3-2.1-1.5-2.7
	c-0.2-0.6-1.3-4.4-1.3-4.4s3.7,4.6,5.6,5.4c0,0-3.7-7-4.8-10.9c-1.1-3.9-1.9-10-1.9-10.6c0-0.6-2.3-17-3.6-19.7
	c-1.3-2.7-3-6.4-5.9-8.2C60.4,2.5,56.1,0,49.9-0.4c-0.1,0-0.2,0-0.3,0c-0.1,0-0.2,0-0.3,0C43.1,0,38.8,2.5,35.9,4.4
	C33,6.2,31.3,9.9,30,12.6c-1.3,2.7-3.6,19.1-3.6,19.7c0,0.6-0.7,6.9-1.8,10.8c-1.1,3.9-4.9,10.7-4.9,10.7c1.9-0.9,5.6-5.4,5.6-5.4
	s-1.4,4.2-1.6,4.7c-0.2,0.6-1.5,2.3-1.2,2.3c0.3,0,3.1,1.3,3.1,1.3l11.1,3.5l-0.2,5.2c-1,0.1-4.8,2.7-5.4,3.9
	c-0.6,1.3-2.2,4-3.1,4.4c-2,0.7-6.4,2.5-7.7,3.5c-2.3,1.7-7.7,3.2-12,3.9c-4.3,0.7-6.9,7-6.9,7c0,0.2-1.5,11.3-1.4,11.5H99.1z"/>
</svg>
